<?xml version="1.0" encoding="UTF-8"?>
<svg id="art" xmlns="http://www.w3.org/2000/svg" viewBox="0 0 856 226.59">
  <defs>
    <style>
      .cls-1 {
        fill: #f6f6f6;
      }

      .cls-1, .cls-2, .cls-3 {
        stroke-width: 0px;
      }

      .cls-2 {
        fill: #fff;
      }

      .cls-3 {
        fill: #4f2683;
      }
    </style>
  </defs>
  <g>
    <rect class="cls-1" x="652.34" y="0" width="203.66" height="226.59" rx="3" ry="3"/>
    <g>
      <path class="cls-3" d="m689.27,195.94v-4.27h.62v4.17c0,1.05.53,1.84,1.73,1.84s1.73-.75,1.73-1.82v-4.18h.62v4.25c0,1.28-.78,2.31-2.35,2.31s-2.34-1.01-2.34-2.29h0Zm9.12-4.27h.66l3.56,5.32h.02v-5.32h.58v6.45h-.55l-3.67-5.48h-.02v5.48h-.58v-6.45h0Zm9.62,0h.62v6.45h-.62v-6.45Zm4.49,0h.64l1.93,5.63h.02l1.94-5.63h.6l-2.27,6.48h-.58l-2.27-6.48h0Zm8.86,0h3.85v.58h-3.23v2.19h2.41v.56h-2.41v2.56h3.42v.57h-4.03v-6.45h0Zm7.82,0h2.16c1.44,0,2.24.61,2.24,1.74,0,1.05-.61,1.57-1.54,1.74l1.63,2.96h-.7l-1.58-2.89h-1.6v2.89h-.61v-6.45h0Zm2.12,3.01c1.06,0,1.66-.3,1.66-1.24s-.59-1.2-1.67-1.2h-1.5v2.44h1.51Zm5.75,1.86l.55-.2c.29.9.94,1.36,1.85,1.36.97,0,1.59-.44,1.59-1.17,0-.67-.32-1.01-1.69-1.45-1.39-.44-2.09-.81-2.09-1.87,0-.92.83-1.66,2-1.66s1.91.62,2.21,1.48l-.52.24c-.32-.84-.89-1.17-1.7-1.17-.86,0-1.39.46-1.39,1.05,0,.72.43.97,1.79,1.4,1.34.43,2,.87,2,1.92s-.95,1.76-2.24,1.76c-1.21,0-2.07-.66-2.37-1.71h0Zm8.52-4.86h.62v6.45h-.62v-6.45Zm6.08.58h-2.08v-.58h4.78v.58h-2.08v5.87h-.62v-5.87h0Zm7.67,3.06l-2.16-3.63h.67l1.81,3.08,1.8-3.08h.66l-2.17,3.63v2.82h-.62v-2.82h0Zm8.39-.37c0-.39.27-.66.65-.66s.66.27.66.66-.27.65-.66.65-.65-.27-.65-.65Zm7.29-.06c0-1.95,1.07-3.32,2.68-3.32,1.31,0,2.03.78,2.34,1.97l-.59.15c-.29-1.02-.77-1.55-1.75-1.55-1.25,0-2.06,1.08-2.06,2.74,0,1.79.82,2.83,2.07,2.83.96,0,1.56-.56,1.84-1.64l.59.13c-.31,1.27-1.15,2.07-2.44,2.07-1.63,0-2.68-1.32-2.68-3.37h0Zm18.44-3.2h.66l3.56,5.32h.02v-5.32h.58v6.45h-.55l-3.67-5.48h-.02v5.48h-.58v-6.45h0Zm18.67,0h1.63c2.1,0,3.21,1.09,3.21,3.22s-1.13,3.23-3.21,3.23h-1.63v-6.45h0Zm1.72,5.91c1.61,0,2.51-.82,2.51-2.69s-.91-2.66-2.53-2.66h-1.1v5.35h1.12Zm-27.7-5.94h.75l2.41,6.48h-.65l-.73-1.98h-2.86l-.73,1.98h-.6l2.41-6.48h0Zm1.58,3.94l-1.21-3.3h-.02l-1.21,3.3h2.45Zm17.08-3.94h.75l2.41,6.48h-.65l-.73-1.98h-2.86l-.73,1.98h-.6l2.41-6.48h0Zm1.58,3.94l-1.21-3.3h-.03l-1.21,3.3h2.45Zm16.39-3.94h.75l2.41,6.48h-.65l-.73-1.98h-2.86l-.73,1.98h-.6l2.41-6.48h0Zm1.58,3.94l-1.21-3.3h-.03l-1.21,3.3h2.45Zm-73.51-31.36c-.36.41-.84.63-1.43.63-1.31,0-2.12-.54-4.12-.54-3.43,0-6.09,1.87-6.09,5.25,0,6.93,10.62,5.45,10.62,10.43,0,2.26-1.64,3.33-3.68,3.33-3.81,0-6.04-2.48-6.88-6.11h-.95l1.27,6.97c.41-.48.95-.66,1.5-.66,1.1,0,2.49.84,4.96.84,3.97,0,6.97-2.21,6.97-5.97,0-7.52-10.79-5.53-10.79-10.39,0-1.55,1.1-2.69,3.09-2.69,3.15,0,4.92,2.23,5.68,4.87h.93l-1.08-5.96h0Zm53.86,18.73v.97h10.39v-.97h-3.07v-10.12c0-3.62,1.86-7.12,5.39-7.12,1.98,0,3.18,1.12,3.18,4.05v13.19h-3.07v.97h10.12v-.97h-3.07v-13.08c0-3.89-1.91-5.57-5.72-5.57-3.19,0-5.53,1.56-6.73,4.2h-.08v-4.28c-.52.43-1.23.94-2.96.94h-4.12v.97h3.11v16.81h-3.35,0Zm-37.92-2.37c-.51,1.13-1.31,2.25-2.76,2.25s-2.1-.93-2.1-3.23v-13.47h4.79v-.97h-4.79v-6.43h-.82c-.53,4.15-2.61,6.27-6.39,6.64v.77h0,0s3.15,0,3.15,0v13.31c0,2.49.49,4.86,4.53,4.86,2.55,0,4.1-1.18,4.91-2.71l.31-.62-.84-.4h0Zm36.9-13.57c0-1.54-1.14-2.71-3.26-2.71-3.17,0-4.74,2.84-5.55,5.1h-.05v-5.25c-.63.52-1.27,1.01-2.95,1.01h-4.37v.97h3.35v16.81h-3.35v.97h10.55v-.97h-3.23v-8.29c0-4.41,2.17-9.2,4.95-9.2.21,0,.35.02.46.08-.48.38-.78.97-.78,1.63,0,1.22.94,2.1,2.1,2.1,1.26,0,2.14-1.05,2.14-2.25h0Zm-68.9,11.53c-1.1,2.58-2.93,4.64-6.29,4.64-5.02,0-5.76-3.83-5.76-9.69v-.31h12.92c0-5.22-2.89-8.8-8.29-8.8-5.89,0-9.07,4.54-9.07,10s2.98,10,9.03,10c3.74,0,6.78-1.41,8.37-5.55l-.91-.3h0Zm-12.01-7.45c.21-2.9,1.27-5.71,4.32-5.71,3.25,0,3.97,2.54,4.04,5.23,0,.25,0,1.12,0,1.36h-8.41c0-.26.02-.61.04-.88Zm62.33,7.45c-1.1,2.58-2.93,4.64-6.29,4.64-5.02,0-5.76-3.83-5.76-9.69v-.31h12.92c0-5.22-2.89-8.8-8.29-8.8-5.89,0-9.07,4.54-9.07,10s2.98,10,9.03,10c3.74,0,6.78-1.41,8.37-5.55l-.91-.3h0Zm-12.01-7.45c.21-2.9,1.27-5.71,4.32-5.71,3.25,0,3.97,2.54,4.04,5.23,0,.25,0,1.12,0,1.36h-8.41c0-.26.02-.61.04-.88Zm-71.65-6.96c-1.71,4.93-7.04,20.2-7.04,20.2h-.8l-8.71-23.7-1.43-3.78h-2.7v-.95h11.17v.95h-3.5l1.07,3.18,6.08,16.78h.08l5.05-14.59-1.99-5.37h-3.38v-.95h12.17v.95h-3.94l1.07,3.1,6.16,16.86h.08l5.49-16.78.91-3.18h-3.5v-.95h7.91v.95h-2.82l-1.23,3.5-7.87,23.98h-.84l-7.52-20.2h0Z"/>
      <g>
        <path class="cls-2" d="m805.42,78.55v-43.63c-11.3-3.99-29.02-6.57-49-6.57s-37.05,2.57-48.33,6.57v44.26c0,6.52-.3,18.07,5.63,31.9,7.37,17.17,21.62,30.08,41.97,38.17l1.06.43,1.05-.43c20.36-8.1,34.62-21.01,41.99-38.18,5.94-13.83,5.64-26.28,5.64-32.53Z"/>
        <path class="cls-3" d="m805.42,78.55v-43.63c-11.3-3.99-29.02-6.57-49-6.57s-37.05,2.57-48.33,6.57v44.26c0,6.52-.3,18.07,5.63,31.9,7.37,17.17,21.62,30.08,41.97,38.17l1.06.43,1.05-.43c20.36-8.1,34.62-21.01,41.99-38.18,5.94-13.83,5.64-26.28,5.64-32.53Zm-38.03,47.73c-.22.07-.48.16-.69.27-.14.07-.22.11-.24.22-.01.08.07.19.12.24-.13.46-1.23.41-1.6.53-.31.11-.67.45-.88.67-.21.23-.14.17-.47.24-.6.12-.46.67-.28,1.1.18.43.49.78.88,1.04.14.09.77.34,1.11.34-.33.36-.79.27-1.2.44-.23.09-.44.22-.7.28-.34.07-.52.05-.8,0-.45-.09-.8-.07-1.17-.03-.28.03-.52,0-.76-.14-.11-.06-.32-.21-.43-.23-.34-.05-.07.45,0,.62-.46.44-1.52-.17-1.94-.43-.37-.22-.56-.74-.98-.88-.03.45,0,.89,0,1.33.05,1.36.08,2.71.13,4.07.02.8.04,1.59.07,2.38h-1.49l.18-7.85c-.47.03-.66.47-1.05.64-.24.1-.49.05-.72.2-.24.15-.33.35-.61.48-.23.1-.52.14-.78.14-.32,0-.67-.06-.85-.24.16-.29,0-.58-.2-.69-.23-.12-.55.06-.75.11-1.04.26-2.26-.38-3.2-.73,0,0,2.29-.39,2.29-1.72,0-.37-.17-.67-.45-.91-.27-.22-.77-.48-1.12-.53-.57-.08-.96.07-1.31-.07.05-.18-.26-.43-.5-.6-.23-.16-.51-.24-.76-.37-.46-.24-1.14-.66-.95-1.26.37.19.72.23,1.05.05.26-.14.36-.35.36-.66,0-.42-.47-.7-.63-1.02-.13-.26-.25-.5-.48-.68-.21-.17-.57-.22-.58-.54.44.17.56-.21.3-.5-.29-.33-.67-.48-.89-.88-.19-.36-.33-.79-.34-1.2,0-.12.02-.47.19-.51.16-.03.22.18.29.29.27.4.67.59,1.08.8.51.25.7.39,1.27.49,1.1.2,1.8.03,2.44-.55.11-.1.38-.3.51-.31.22.32.81.92,1.38,1.09.42.12.91.72,1.13.91.76.66,1.23.29,1.23-.35,0-.53-.2-1.23-.32-1.74-.18-.83-.34-1.23-.46-2.09-.07-.53-.36-.97-.55-1.34-.19-.37-.47-1.31.22-.98.29.14.71.39,1.06.35.81-.11.91-1,1.07-1.66.09-.34.09-.62.21-.97.07-.2.17-.31.27-.32.04.1.15.29.32.29.31,0,.58-.54.66-.86.06-.27.12-.59.2-.83.14-.41.18-.9.4-1.36.08.31.22.85.29,1.04.19.49.35.98.64,1.38.24.35.56.45.94.25.19.46.19,1.97.59,2.67.23.42.52.57.88.57.32,0,.54-.1.77-.23.28-.17.59-.38.79-.38.09,0,.15.05.15.14,0,.32-.49,1.17-.55,1.35-.15.41-.39.87-.51,1.29-.1.35-.2.78-.28,1.14-.08.41-.15.88-.18,1.52-.02.38,0,1.06.3,1.27.42.28.94-.28,1.28-.54.41-.32.75-.62,1.06-1.04.23-.31.68-1.12,1.11-1.08,0,.32.45.78,1.14.89.42.06.76-.02,1.01-.2.32-.23.34-.22.7-.09.78.3,2.07-.72,2.54-1.09.16.17.01.47-.19.78-.37.56-.79.74-.8,1.15,0,.37-.45,1.05-.42,1.46-.13.24-.56.49-.76.65-.57.49-.92,1.04-.71,1.8.18.66.72.98,1.23.98s.84-.34,1.01-.26c.1.06-.15.38-.25.46-.28.24-.73.42-1.04.52h0Zm29.06-61.76h-79.36l-5.07-5.32,10.13,3.37c-.83-2.52-3.15-3.4-4.64-5.55-.89-1.28-1.19-2.54-1.09-3.85.27.47.76,1.11,1.53,1.64.73.51,1.72.9,3.05,1.19,2.39.52,3.62,1.27,4.68,2.24l-5.18-9.27,8.93,5.76c-.37-2.65-2.2-4.03-3.11-6.48-.54-1.46-.53-2.77-.1-4.02.15.52.46,1.26,1.07,1.96.58.67,1.43,1.3,2.66,1.91,2.26,1.13,3.27,2.2,4.06,3.46l-2.75-10.39,7.18,7.75c.29-2.61-1.12-4.4-1.39-6.99-.16-1.55.17-2.83.88-3.93.01.54.13,1.34.55,2.17.4.79,1.07,1.61,2.11,2.51,1.98,1.72,2.66,3.04,3.11,4.51l-.08-10.91,5,9.24c.98-2.34-.05-4.5.33-7.06.23-1.54.9-2.71,1.87-3.6-.12.52-.21,1.33,0,2.23.19.87.63,1.83,1.42,2.96,1.52,2.21,1.84,3.67,1.9,5.24h.02s2.66-10.69,2.66-10.69l2.55,10.25c1.54-2.11,1.15-4.51,2.16-6.91.61-1.43,1.54-2.29,2.7-2.9-.25.48-.53,1.23-.57,2.16-.03.89.16,1.93.63,3.22.9,2.45.85,3.93.53,5.42l5.17-9.57-.07,10.52c2.01-1.58,2.15-4.08,3.72-6.14.95-1.24,2.09-1.83,3.37-2.14-.37.4-.82,1.06-1.09,1.95-.25.85-.33,1.91-.19,3.27.27,2.66-.16,4.09-.86,5.49h0s7.48-8.07,7.48-8.07l-2.68,10.14c2.25-1.07,3.06-3.23,5.08-4.82,1.22-.96,2.46-1.44,3.77-1.42-.45.3-1.06.83-1.54,1.62-.46.76-.79,1.76-1,3.12-.4,2.63-1.16,3.92-2.19,5.09l.04.03,9.26-5.97-5.11,9.14c2.49-.36,3.7-2.35,6.03-3.38,1.42-.63,2.78-.79,4.05-.45-.51.18-1.23.54-1.9,1.19-.63.62-1.2,1.52-1.74,2.78-1.04,2.44-2.09,3.49-3.37,4.37l.05.07,10.45-3.48-5.07,5.32h0Zm-41.14,22.46c-.14-.24-.69-1.48-3.73-1.48h-8.89v-14.36h.65v13.71h8.12c.62,0,1.15.04,1.61.11,1.64.26,2.32.91,2.64,1.37h2.08c.31-.46.97-1.11,2.59-1.37.46-.07.99-.11,1.6-.11h8.15v-13.66h.65v14.31h-8.91c-3.04,0-3.54,1.25-3.65,1.48h-2.94Zm1.08-2.44v.7c-1.24-2.33-6.89-1.95-11.69-1.47v-13.32c2.59-.02,5.14-.38,7.13-.38,2.53,0,4.26.38,4.56,1.85v11.97c-1.54-1.83-6.13-1.66-10.94-1.19v.38c4.76-.46,9.78-.61,10.94,1.45h0Zm-10.05-5.24c.57-.01,1.17-.03,1.64-.03.62,0,1.13.02,1.64.03v-.27h-.26c-.81,0-.87-.08-.87-.62v-2.31c0-.63.1-.68.63-.68h.5v-.27c-.52,0-1.08.03-1.64.03-.52,0-1.09-.02-1.64-.03v.27h.5c.53,0,.63.04.63.68v2.31c0,.53-.06.62-.87.62h-.26v.27h0Zm5.72-2.82c-.62-.37-1.06-.91-1.06-1.61,0-.6.44-1.67,1.84-1.67,1.12,0,1.61.71,1.61,1.34s-.23,1.05-1.17,1.48c.91.46,1.32.96,1.32,1.67,0,.99-.78,1.71-1.96,1.71-1.07,0-1.75-.73-1.75-1.5,0-.84.66-1.26,1.17-1.43h0Zm1.58,1.65c0-.52-.25-.86-1.33-1.52-.48.25-.73.75-.73,1.21,0,.85.6,1.26,1.08,1.26.68,0,.98-.5.98-.95h0Zm-.57-2.23c.42-.33.7-.67.7-1.26,0-.68-.45-1.11-.98-1.11-.6,0-.92.48-.92.98,0,.53.37.9,1.2,1.38h0Zm8.58-5.81c1.99,0,4.51.37,7.15.38v13.32c-4.8-.48-10.45-.86-11.69,1.47v-.7c1.12-2.1,6.18-1.92,10.96-1.45v-.38c-4.82-.46-9.44-.66-10.96,1.19v-11.97c.3-1.46,2.03-1.85,4.54-1.85h0Zm-3.15,6.58h.27l.21-.56h2.5l-2.44,4.99.45.12,3.04-5.98-.07-.08h-3.73l-.23,1.5Zm6.02-.18c-.62-.37-1.06-.91-1.06-1.61,0-.6.43-1.67,1.84-1.67,1.13,0,1.61.71,1.61,1.34s-.23,1.05-1.18,1.48c.91.46,1.32.96,1.32,1.67,0,.99-.78,1.71-1.96,1.71-1.07,0-1.74-.73-1.74-1.5,0-.84.66-1.26,1.17-1.43h0Zm1.58,1.65c0-.52-.25-.86-1.33-1.52-.48.25-.73.75-.73,1.21,0,.85.6,1.26,1.08,1.26.68,0,.99-.5.99-.95h0Zm-.57-2.23c.42-.33.7-.67.7-1.26,0-.68-.45-1.11-.98-1.11-.6,0-.92.48-.92.98,0,.53.37.9,1.2,1.38h0Zm20.91,49.37l-29.7-24.21-29.69,24.21c-15.33-17.79-15.22-38.32-15.17-46.8v-13.94h.06l44.81,36.53,44.8-36.53h.06v13.94c.05,8.47.16,29.01-15.17,46.8h0Zm-55.63-13.02c6.32,0,11.46-5.15,11.47-11.51.01-6.37-5.11-11.54-11.43-11.55-6.32,0-11.46,5.14-11.47,11.51-.01,6.37,5.11,11.54,11.43,11.55Zm7.42-16.29c.02.35-.15.93-.28,1.08-.12.04-.45.07-.69.08-.15,0-.19.03-.29.18-.28.48-.54.93-.84,1.51-.06.68-.06,1.34-.12,2.14-.02.28.02.66-.17.98-.25.32-.52.55-.74.7-.05.03-.11.11.08.05.11-.03.64-.3.76-.34.37-.12.81-.58,1.4,0,.29.28.72.54,1.24.89.19.13.29.1.55.33.21.18.31.59.43.8.32.55.35.88.35,1.01-.21.11-.95.12-1.25.03-.1-.19-.09-.47-.15-.62-.11-.27-.2-.4-.34-.49-.23-.16-.4-.35-.64-.48-.58-.32-.65-.4-1.08-.19-.39.19-.99.74-1.63,1.07-.5.24-1.87,0-2.25-.35.13.37.9.79,1.47,1.07-.08.2-.29,1.26-.71,1.87-.03-.15-.12-.26-.25-.26-.39,0-.31.82-.68,1.25-.03-.13-.11-.27-.27-.27-.36,0-.32.78-.73,1.18-.05-.17-.14-.29-.31-.29s-.31.16-.45.31c-.49.53-.72.83-1.19,1.32-1.57-.09-3.89-1.18-4.71-2.17,1.49-1.59,2.82-3.18,3.48-3.64.31-.94,1.25-2.92,1.59-3.84-.04-.09-.09-.17-.14-.26-.23.13-.5.16-.62.1.1-.26.11-.66,0-.98-.16.1-.4.15-.57.08.1-.31.12-.67.02-.96,0,0,0,0,0,0-.21.1-.41.13-.57.07.09-.35.17-.67.07-1.11-.01-.03-.02-.06-.03-.09-.28.14-1.28.33-1.51.23-.14-.11.71-.98,1.43-1.71-.68.3-1.56.62-2.92.89-.77.16-2.39.44-3.53.23-.19-.03-.15-.28.04-.29.6,0,1.42-.03,2.01-.18.16-.04.41-.18-.05-.25-.49-.09-1.38-.23-1.83-.38-.16-.05-.07-.24.06-.23.55.04,1.2.15,1.67.17.27,0,.39-.03.19-.2-.12-.11-.51-.35-.9-.59-.09-.05-.07-.17.03-.19.31-.05,1.53.71,2.35.93.18.05.34.08.49.06.16-.03.19-.13.18-.2-.03-.19-.84-.58-1.23-.84-.16-.11,0-.23.18-.18.44.12,1.43.65,1.88.71.36.04.49-.06.47-.16-.04-.24-1.42-.89-1.75-1.13-.08-.06.03-.17.12-.16.7.09,2.08,1.03,2.68.93.07,0,.15-.06.14-.15-.05-.27-1.19-.86-1.47-1.06-.14-.1.02-.19.22-.15.42.09,1.07.43,1.46.62.18.09.34.13.53.1.25-.05.47-.31.37-.85-.1-.55-.62-.77-.98-.87-.4-.11-.1-.3.24-.23.66.12,1.14.44,1.25,1.02.02.09.02.23.03.35.01.32.24.21.43-.06.36-.51.44-1.02.38-1.36-.11-.6-.95-.84-.95-.98,0-.05.05-.09.09-.1.32-.06,1.21.32,1.34,1.04.07.38,0,.58-.07.95-.01.08.04.14.16.02.42-.43.77-1.19.65-1.88-.13-.74-.89-.99-.91-1.12,0-.03.06-.08.11-.09.31-.05,1.15.44,1.31,1.25.14.72-.2,2.22-2.44,3.42.94-.21,1.2-.18,1.3-.06,1.08-.29,1.77-.51,2.05-.45.3.47-.34.65-.35,1,0,.34.75-.22.62.31-.23.42-.52.44-.85.57-.17.12-.84.59-1.2.89,1.08.75,2.19,1.9,2.26,1.95.07.17.33.64.63,1.35,0,.01.02.03.02.04.16-.46.4-1.24.51-1.62.1-.34.06-.45.17-.65.09-.17.4-.45.67-.85.24-.36.63-.91.77-1.12.23-.35.45-.28.87-.39.16-.04.63-.07.82-.06h0Zm-8.5.05c.05-.05.14-.13.22-.18.18-.1.42-.15.58-.18.08.12.05.32-.09.47-.14.16-.29.09-.44.02-.1-.05-.18-.04-.22-.05-.05,0-.09-.05-.05-.09h0Zm41.44,4.71c.01-6.37,5.15-11.52,11.47-11.51,6.32.01,11.44,5.18,11.43,11.55-.01,6.36-5.15,11.52-11.46,11.51-6.32,0-11.44-5.31-11.43-11.55Zm16.72-7.85c.07.09.11.19.12.31,0,.28-.22.52-.5.53-.28,0-.52-.22-.53-.5,0-.26.18-.48.43-.52l-.59-.91-1.01.44c.1.09.17.22.17.37,0,.28-.22.52-.5.53-.29,0-.52-.22-.53-.5,0-.22.13-.41.32-.49-.3-.32-.95-.8-1.57-1.01.48.87.74,1.95.72,2.85.65-.04,2.42.5,3.09,1.01.55-.81,1.37-1.58,2.28-1.9-.44-.15-1.29-.29-1.92-.2h0Zm-3.22,2.3c-.08,0-.15-.01-.23-.03-.07-.02-.1-.05-.12-.07-.02-.03-.09-.11-.26-.12-.31-.02-.46.21-.48.35-.01.1.02.21.08.29.06.07.14.11.23.12.06,0,.13,0,.19-.03h0c.12-.08.19-.18.23-.29.02-.05.16-.11.33-.11.03,0,.06-.02.06-.05,0-.03,0-.06-.04-.06h0Zm-3.1.17c-.06.11-.06.22-.03.31,0,0,.04.06.05.07-.04.17-.03.39.04.7.04.18.2.24.51.25,0,.08.01.15.03.22,0,0,0,.02,0,.03-.18.05-.35.08-.51.07-.48-.03-.77-.29-.71-.78.01-.09.04-.16.08-.24.02-.04,0-.07-.04-.09-.17-.06-.66.34-.73.9-.07.53.23.83.67.86.24.01.57-.02.92-.16.59-.24,1.26-.31,1.67.1-.31-.06-1.11,0-1.34.05-.35.06-.51.78-.13.8.29.02,1.37-.05,1.43-.03-.11.47-.81,1.06-1.49,1.2-.42-.17-1.62-.13-2.17.03-.69-.78-1.19-2.22-1.25-2.7-.03-.22-.03-.47.08-.67.22-.39.66-.36.87-.7.11-.18.06-.4.09-.6.01-.08.19-.39-.03-.49-.1.12-.25.21-.45.15-.13-.04-.27-.09-.41-.03-.24.11-.29.4-.47.6-.1.11-.23.06-.2-.11.05-.27.18-.53.14-.81-.04-.28-.25-.5-.54-.66-.12-.07-.26-.19-.4-.23-.13-.03-.25.02-.25.08.06.05.12.12.12.23,0,.25-.27.39-.27.63,0,.37.25.7.27.89.02.14-.11.15-.19.1-.19-.1-.49-.27-.76-.27-.23,0-.38.18-.57.26-.08.03-.44.03-.37.2.2.04.34.17.41.35.05.14.08.25.21.35.22.15.68.12.9.15.14.03.31.11.35.41.03.2-.04.44-.14.61-.17.31-.26.62-.18.92.08-.11.17-.16.26-.16.19,0,.25.22.11.52-.13.27-.21.58-.08.93.06-.12.16-.19.27-.19.17,0,.27.18.14.52-.11.31-.15.6-.02.9.05-.13.15-.22.28-.22.19,0,.26.19.33.35.22.53.56.8,1.42.8-.3.56-2.78.2-3.79.08-.22-.03-.34-.08-.4-.26-.16-.4.21-.72,0-1.14-.1-.21-.27-.26-.45-.37-.08-.05-.31-.34-.46-.22.06.16.05.29-.13.45-.12.1-.23.19-.25.36-.03.28.2.55.27.79.06.18-.05.25-.2.14-.24-.18-.59-.61-.95-.61-.25,0-.32.15-.52.24-.09.04-.48.08-.44.27.17.03.32.13.36.36.03.15.07.3.2.4.34.25.86.14,1.17.21.12.03.14.13.03.2-.26.16-.63.26-.76.52-.11.21-.04.46-.05.67,0,.09-.13.39.08.45.1-.14.24-.24.48-.21.16.02.28.09.44.01.26-.13.28-.37.42-.59.07-.12.18-.23.37-.23.11,0,.22.03.31.11.2.18.18.6.79.69-.03-.07-.05-.15-.05-.21,0-.12.07-.22.2-.22.14,0,.24.07.36.28.16.28.33.36.61.39-.04-.07-.06-.16-.06-.24,0-.13.07-.21.19-.21.07,0,.2.03.32.22.18.3.3.44.61.47-.09-.17-.02-.41.21-.41s.82.2,1.25.38c-.01,1.12.71,2.32,1.79,3.05-.04-.21.07-.33.23-.33.44,0,.66,1.03,1.64,1.5-.05-.2.06-.32.2-.32.12,0,.27.07.36.12.88.47,1.81,1.08,2.26,1.47.91-.28,2.4-1.17,3.37-2.17-.6-.18-2.26-1.43-2.83-2.02-1.04-1.07-1.32-2.19-1.32-3.02,0-.28.04-.54.11-.74.3.18.73.15.99-.09-.48-.37-.4-1.1-.24-1.37.26.22.74.15.98-.07-.36-.23-.56-.81-.37-1.32.2.21.68.22.96-.01-.38-.32-.57-.83-.47-1.42.17.24.51.27.76.18-.15-.32-.16-.85-.21-1.21-.06-.49-.2-1.03-.36-1.33-.52-.45-2.11-1.09-3.1-1.09-.14,0-.27.02-.38.05-.27.06-.47.16-.48.21-.15.23-.51.28-.84.37-.24.07-.87.24-1.11.38h0Zm1.52,7.75h-.08c-.06.68-.44,1.7-.67,2.07l.43-.34.28.34.28-.34.4.34c-.22-.39-.58-1.4-.65-2.07h0Zm7.64,3.27c.09-.14.21-.33.21-.33-.42-.65-.74-1.35-.69-2.17.06-.88.56-1.15.95-1.13.35.01.59.28.6.67.3-.25.43-.54.45-.84.02-.23-.1-.58-.49-.68.7-.65.63-1.96-.09-2.45.1.94-.6,1.58-1.22,2.19-.84.81-.95,1.74-.81,2.7-.5-.97-.73-1.88-.66-2.78.07-1.01.58-2.05,1.32-2,.24.02.48.14.58.35.35-.59.1-1.24-.46-1.29.58-1.39-.36-2.78-1.13-3.08.2.42.3.84.26,1.32-.09,1.34-1.26,2.4-1.38,4.38-.13,2.15,1.07,4.02,2.35,5.44,0,0,.11-.14.22-.3h0Zm-5.05-.32h-.08c-.06.68-.44,1.7-.68,2.08l.43-.34.28.34.28-.34.4.34c-.22-.39-.58-1.4-.65-2.08h0Zm-1.99-8.7c.07-.13.11-.31.11-.42,0-.08,0-.18-.09-.26-.08-.08-.29-.12-.5-.12s-.44.03-.57.11c-.02.06-.04.14-.08.22.4,0,.82.1,1.13.47h0Z"/>
      </g>
    </g>
  </g>
  <g>
    <rect class="cls-1" x="0" y="0" width="628.08" height="226.59" rx="3" ry="3"/>
    <g>
      <g>
        <path class="cls-3" d="m182.92,130.59c-14.02,0-16.08-10.68-16.08-27.06v-.87h36.08c0-14.56-8.07-24.56-23.14-24.56-16.44,0-25.32,12.67-25.32,27.93s8.33,27.93,25.21,27.93c10.45,0,18.93-3.95,23.36-15.49l-2.55-.83c-3.06,7.21-8.18,12.96-17.56,12.96Zm-15.99-33.75c.59-8.1,3.55-15.94,12.07-15.94,9.08,0,11.08,7.09,11.28,14.6.02.7.03,3.13.03,3.79h-23.47c0-.73.04-1.69.1-2.45h0Z"/>
        <path class="cls-3" d="m214.15,162.35c-3.8-1.22-4.99-1.9-4.99-3.92,0-1.66,1.46-2.95,3.87-2.95,2.26,0,3.85.93,4.74,3.26l1.46-.68c-.85-2.41-2.8-4.14-6.18-4.14s-5.6,2.05-5.6,4.62c0,2.97,1.97,4.02,5.84,5.23,3.82,1.22,4.72,2.17,4.72,4.04,0,2.02-1.75,3.26-4.45,3.26-2.53,0-4.36-1.29-5.16-3.79l-1.53.56c.85,2.92,3.24,4.77,6.62,4.77,3.6,0,6.25-1.92,6.25-4.91s-1.85-4.16-5.6-5.35h0Z"/>
        <path class="cls-3" d="m197.18,159.14c0-3.16-2.24-4.87-6.25-4.87h-6.03v18h1.7v-8.08h4.48l4.4,8.08h1.95l-4.55-8.27c2.61-.48,4.31-1.95,4.31-4.87h0Zm-6.38,3.53h-4.21v-6.81h4.19c3.02,0,4.67.88,4.67,3.36,0,2.61-1.68,3.46-4.65,3.46Z"/>
        <path class="cls-3" d="m163.97,57.1v-2.66h-22.09v2.66h9.77l-2.55,8.88-15.32,46.85h-.22l-17.21-47.07-3-8.66h10.99v-2.66h-33.97v2.66h9.44l5.55,14.99-14.1,40.74h-.22l-16.99-46.85-3-8.88h9.77v-2.67h-31.2v2.66h7.55l3.99,10.55,24.31,66.17h2.23s14.88-42.64,19.65-56.4l20.99,56.4h2.34l21.98-66.95,3.44-9.77h7.88Z"/>
        <path class="cls-3" d="m84.85,165.95c0,2.99-1.48,5.09-4.82,5.09s-4.84-2.19-4.84-5.14v-11.63h-1.73v11.92c0,3.58,2.12,6.4,6.55,6.4s6.57-2.87,6.57-6.45v-11.87h-1.73v11.68Z"/>
        <path class="cls-3" d="m232.19,130.97c-10.63,0-16.88-6.91-19.2-17.06h-2.65l3.56,19.47c1.15-1.35,2.66-1.84,4.18-1.84,3.06,0,6.95,2.35,13.85,2.35,11.08,0,19.45-6.17,19.45-16.67,0-21-30.13-15.45-30.13-29.02,0-4.32,3.08-7.51,8.63-7.51,8.81,0,13.73,6.22,15.85,13.6h2.61l-3.01-16.64c-1.01,1.13-2.35,1.75-3.99,1.75-3.66,0-5.92-1.52-11.52-1.52-9.58,0-17.01,5.21-17.01,14.66,0,19.35,29.67,15.22,29.67,29.13,0,6.3-4.59,9.29-10.28,9.29h0Z"/>
        <polygon class="cls-3" points="110.74 169.12 110.69 169.12 100.76 154.27 98.92 154.27 98.92 172.28 100.55 172.28 100.55 156.98 100.59 156.98 110.84 172.28 112.37 172.28 112.37 154.27 110.74 154.27 110.74 169.12"/>
        <rect class="cls-3" x="125.78" y="154.27" width="1.73" height="18"/>
        <polygon class="cls-3" points="145.52 169.99 145.47 169.99 140.09 154.27 138.31 154.27 144.64 172.35 146.27 172.35 152.6 154.27 150.92 154.27 145.52 169.99"/>
        <polygon class="cls-3" points="164.79 163.55 171.53 163.55 171.53 161.99 164.79 161.99 164.79 155.88 173.82 155.88 173.82 154.27 163.06 154.27 163.06 172.28 174.33 172.28 174.33 170.7 164.79 170.7 164.79 163.55"/>
        <rect class="cls-3" x="230.67" y="154.27" width="1.73" height="18"/>
        <path class="cls-3" d="m396.03,154.2l-6.73,18.08h1.69l2.04-5.54h7.98l2.03,5.54h1.81l-6.73-18.08h-2.09,0Zm-2.44,11.01l3.39-9.2h.07l3.39,9.2h-6.85,0Z"/>
        <polygon class="cls-3" points="241.82 155.88 247.64 155.88 247.64 172.28 249.37 172.28 249.37 155.88 255.18 155.88 255.18 154.27 241.82 154.27 241.82 155.88"/>
        <path class="cls-3" d="m392.86,85.45c0-4.31-3.19-7.56-9.1-7.56-8.84,0-13.23,7.93-15.51,14.23h-.14v-14.67c-1.76,1.44-3.54,2.83-8.23,2.83h-12.2v2.72h9.34v46.94h-9.34v2.72h29.45v-2.72h-9.02v-23.14c0-12.31,6.05-25.69,13.81-25.69.58,0,.97.07,1.29.22-1.33,1.07-2.19,2.71-2.19,4.56,0,3.42,2.62,5.85,5.85,5.85,3.52,0,5.97-2.93,5.97-6.28Z"/>
        <path class="cls-3" d="m421.03,154.27h-4.55v18h4.55c5.79,0,8.95-3.09,8.95-9.03s-3.09-8.98-8.95-8.98Zm.25,16.5h-3.11v-14.94h3.06c4.51,0,7.07,2.3,7.07,7.42s-2.53,7.52-7.02,7.52h0Z"/>
        <path class="cls-3" d="m446.19,154.2l-6.73,18.08h1.69l2.04-5.54h7.98l2.03,5.54h1.81l-6.73-18.08h-2.09,0Zm-2.44,11.01l3.39-9.2h.07l3.39,9.2h-6.85,0Z"/>
        <path class="cls-3" d="m451.13,129.94v-36.51c0-10.87-5.33-15.54-15.97-15.54-8.91,0-15.43,4.35-18.8,11.74h-.22v-11.96c-1.46,1.2-3.44,2.62-8.27,2.62h-11.5v2.72h8.69v46.94h-9.34v2.72h29.01v-2.72h-8.59v-28.25c0-10.1,5.21-19.89,15.04-19.89,5.52,0,8.87,3.12,8.87,11.3v36.84h-8.58v2.72h28.25v-2.72h-8.59Z"/>
        <polygon class="cls-3" points="376.18 169.12 376.13 169.12 366.2 154.27 364.35 154.27 364.35 172.28 365.99 172.28 365.99 156.98 366.03 156.98 376.28 172.28 377.81 172.28 377.81 154.27 376.18 154.27 376.18 169.12"/>
        <path class="cls-3" d="m282.12,129.6c-4.14,0-5.86-2.6-5.86-9.01v-37.6h13.37v-2.72h-13.37v-17.95h-2.29c-1.49,11.59-7.3,17.52-17.83,18.53v2.14h0s8.81,0,8.81,0v37.16c0,6.95,1.35,13.58,12.66,13.58,7.12,0,11.45-3.29,13.7-7.56l.87-1.73-2.35-1.12c-1.42,3.16-3.67,6.27-7.7,6.27h0Z"/>
        <path class="cls-3" d="m343.94,154.2l-6.73,18.08h1.69l2.04-5.54h7.98l2.03,5.54h1.81l-6.73-18.08h-2.09,0Zm-2.44,11.01l3.39-9.2h.07l3.39,9.2h-6.85,0Z"/>
        <polygon class="cls-3" points="269.96 162.86 264.9 154.27 263.03 154.27 269.06 164.41 269.06 172.28 270.79 172.28 270.79 164.41 276.85 154.27 275 154.27 269.96 162.86"/>
        <path class="cls-3" d="m294.32,161.53c-1.06,0-1.82.76-1.82,1.84s.76,1.82,1.82,1.82,1.84-.76,1.84-1.82-.76-1.84-1.84-1.84Z"/>
        <path class="cls-3" d="m320.38,171.06c-3.51,0-5.79-2.92-5.79-7.91,0-4.62,2.26-7.64,5.74-7.64,2.75,0,4.09,1.48,4.89,4.33l1.66-.41c-.85-3.33-2.87-5.5-6.52-5.5-4.5,0-7.5,3.82-7.5,9.27,0,5.74,2.94,9.42,7.5,9.42,3.6,0,5.94-2.21,6.81-5.77l-1.66-.36c-.78,3.02-2.46,4.57-5.13,4.57h0Z"/>
        <path class="cls-3" d="m343.51,118.47l-2.55-.83c-3.06,7.21-8.18,12.96-17.56,12.96-14.02,0-16.08-10.68-16.08-27.06v-.87h36.07c0-14.56-8.07-24.56-23.14-24.56-16.44,0-25.32,12.67-25.32,27.93s8.33,27.93,25.21,27.93c10.45,0,18.93-3.95,23.36-15.49Zm-36.09-21.63c.59-8.1,3.55-15.94,12.07-15.94,9.08,0,11.07,7.09,11.27,14.6.02.7.03,3.13.03,3.79h-23.47c0-.73.04-1.69.1-2.45h0Z"/>
      </g>
      <g>
        <path class="cls-2" d="m578.46,102.4v-45.4c-11.76-4.15-30.2-6.84-50.99-6.84s-38.56,2.67-50.3,6.84v46.06c0,6.79-.31,18.81,5.86,33.2,7.67,17.87,22.5,31.3,43.68,39.72l1.1.45,1.09-.45c21.19-8.43,36.03-21.86,43.7-39.73,6.18-14.39,5.87-27.35,5.87-33.86h0Z"/>
        <path class="cls-3" d="m578.46,102.4v-45.4c-11.76-4.15-30.2-6.84-50.99-6.84s-38.55,2.67-50.3,6.84v46.06c0,6.79-.31,18.81,5.86,33.2,7.67,17.87,22.5,31.3,43.68,39.72l1.1.45,1.09-.45c21.19-8.43,36.03-21.86,43.7-39.73,6.18-14.39,5.87-27.35,5.87-33.86h0Zm-39.57,49.67c-.23.07-.5.17-.72.28-.14.07-.23.11-.25.23-.01.08.08.2.13.25-.13.48-1.28.42-1.66.56-.32.11-.7.47-.92.7-.22.24-.14.18-.49.25-.62.13-.48.7-.29,1.14.18.45.51.81.92,1.08.14.1.8.35,1.16.35-.34.37-.82.28-1.25.46-.24.1-.46.24-.73.29-.36.08-.54.05-.84,0-.47-.09-.83-.07-1.22-.03-.29.03-.54,0-.79-.15-.11-.06-.33-.22-.44-.24-.36-.05-.07.47,0,.65-.48.46-1.58-.17-2.02-.44-.38-.23-.58-.77-1.02-.91-.03.46,0,.93,0,1.39.06,1.41.09,2.82.13,4.23.02.83.05,1.66.07,2.48h-1.55l.18-8.16c-.49.03-.69.49-1.09.66-.25.11-.51.06-.75.2-.25.16-.35.37-.64.5-.24.11-.54.15-.81.14-.33,0-.7-.07-.88-.25.16-.3,0-.6-.21-.72-.24-.13-.57.06-.78.12-1.08.27-2.35-.39-3.33-.76,0,0,2.38-.4,2.38-1.79,0-.39-.18-.7-.47-.95-.28-.23-.8-.5-1.16-.55-.59-.08-1,.07-1.36-.08.05-.19-.27-.45-.52-.63-.24-.17-.53-.25-.79-.39-.48-.25-1.19-.69-.99-1.31.38.2.75.24,1.1.06.27-.15.37-.36.37-.69,0-.44-.49-.73-.66-1.06-.14-.27-.26-.52-.5-.71-.22-.17-.59-.23-.61-.56.46.18.58-.22.31-.52-.3-.34-.7-.5-.93-.92-.2-.37-.35-.82-.35-1.25,0-.13.02-.49.2-.53.17-.03.23.19.3.3.28.42.7.62,1.12.83.53.26.73.4,1.32.51,1.15.2,1.88.04,2.54-.57.11-.11.4-.31.53-.32.23.33.84.96,1.43,1.13.44.12.94.75,1.17.95.79.69,1.28.3,1.28-.37,0-.55-.21-1.28-.33-1.81-.19-.86-.36-1.28-.48-2.18-.07-.55-.37-1.01-.58-1.39-.2-.38-.49-1.37.23-1.02.3.14.74.41,1.1.36.84-.12.95-1.04,1.11-1.72.09-.36.09-.65.22-1,.07-.21.17-.33.28-.33.04.11.15.3.33.3.33,0,.6-.56.68-.89.07-.28.12-.61.2-.86.15-.43.18-.94.41-1.41.09.32.23.89.31,1.08.19.51.37,1.02.67,1.44.25.36.58.47.98.26.2.48.2,2.05.61,2.78.24.43.54.59.91.59.33,0,.57-.1.8-.24.29-.17.61-.39.82-.39.09,0,.16.05.16.14,0,.33-.51,1.22-.58,1.4-.16.43-.4.91-.53,1.34-.1.36-.21.81-.29,1.19-.08.42-.16.91-.19,1.58-.02.4,0,1.11.31,1.32.43.3.98-.29,1.33-.56.42-.33.78-.65,1.1-1.08.24-.32.7-1.16,1.15-1.12,0,.34.47.81,1.19.92.44.07.79-.02,1.05-.21.33-.24.36-.23.73-.09.81.31,2.16-.75,2.64-1.13.16.17.01.49-.2.81-.39.58-.82.77-.83,1.2,0,.38-.47,1.09-.44,1.52-.14.24-.59.51-.79.68-.59.5-.96,1.08-.74,1.88.19.69.75,1.02,1.28,1.02s.88-.36,1.05-.27c.1.07-.16.39-.26.48-.29.25-.76.44-1.09.54h0Zm30.24-64.27h-82.59l-5.28-5.54,10.54,3.51c-.87-2.63-3.28-3.53-4.83-5.78-.93-1.33-1.24-2.64-1.14-4.01.28.49.79,1.15,1.59,1.7.76.53,1.79.93,3.18,1.24,2.49.54,3.77,1.32,4.87,2.34l-5.39-9.65,9.29,5.99c-.39-2.76-2.29-4.19-3.24-6.75-.56-1.52-.55-2.88-.11-4.18.15.54.48,1.32,1.11,2.04.61.7,1.49,1.35,2.77,1.99,2.35,1.18,3.4,2.29,4.22,3.6l-2.86-10.82,7.47,8.06c.3-2.71-1.17-4.58-1.45-7.28-.17-1.61.17-2.94.92-4.09.01.56.14,1.39.57,2.26.41.82,1.11,1.68,2.19,2.61,2.06,1.79,2.77,3.16,3.24,4.69l-.08-11.35,5.2,9.62c1.02-2.44-.06-4.68.34-7.34.24-1.6.94-2.82,1.95-3.74-.13.54-.22,1.38,0,2.32.19.9.66,1.9,1.47,3.08,1.59,2.3,1.91,3.82,1.97,5.45h.02s2.77-11.12,2.77-11.12l2.66,10.67c1.6-2.2,1.19-4.69,2.25-7.19.63-1.49,1.6-2.38,2.81-3.02-.26.5-.56,1.28-.59,2.25-.04.92.16,2.01.65,3.35.94,2.55.88,4.09.56,5.64l5.38-9.96-.08,10.95c2.09-1.64,2.24-4.25,3.87-6.39.99-1.29,2.17-1.9,3.5-2.22-.38.42-.86,1.11-1.14,2.03-.26.89-.34,1.99-.2,3.41.28,2.77-.17,4.26-.9,5.72h0s7.79-8.4,7.79-8.4l-2.79,10.55c2.34-1.12,3.19-3.36,5.29-5.01,1.27-1,2.56-1.5,3.93-1.48-.47.31-1.1.86-1.6,1.69-.48.79-.82,1.84-1.04,3.25-.42,2.74-1.21,4.08-2.27,5.3l.05.03,9.63-6.21-5.32,9.51c2.59-.37,3.85-2.44,6.27-3.51,1.48-.65,2.89-.82,4.21-.47-.53.19-1.28.56-1.97,1.24-.66.65-1.25,1.58-1.81,2.89-1.08,2.54-2.17,3.63-3.5,4.55l.06.07,10.87-3.62-5.28,5.54h0Zm-42.82,23.37c-.14-.25-.71-1.54-3.88-1.54h-9.25v-14.94h.68v14.26h8.45c.64,0,1.2.04,1.68.11,1.71.27,2.42.95,2.75,1.43h2.17c.32-.48,1.01-1.16,2.7-1.43.47-.08,1.03-.11,1.67-.11h8.48v-14.22h.68v14.9h-9.27c-3.16,0-3.69,1.3-3.8,1.54h-3.06,0Zm1.13-2.54v.73c-1.29-2.43-7.17-2.03-12.17-1.53v-13.86c2.69-.02,5.35-.39,7.42-.39,2.63,0,4.43.4,4.75,1.93v12.46c-1.6-1.9-6.38-1.72-11.38-1.24v.4c4.95-.48,10.18-.64,11.38,1.51h0Zm-10.46-5.46c.59-.01,1.22-.03,1.71-.03.64,0,1.17.02,1.7.03v-.28h-.27c-.84,0-.9-.08-.9-.64v-2.4c0-.66.1-.7.66-.7h.52v-.28c-.54,0-1.12.03-1.7.03-.54,0-1.13-.02-1.71-.03v.28h.52c.55,0,.66.04.66.7v2.4c0,.56-.07.64-.91.64h-.27v.28Zm5.96-2.94c-.65-.39-1.1-.95-1.1-1.68,0-.62.45-1.73,1.92-1.73,1.17,0,1.68.74,1.68,1.39s-.24,1.09-1.22,1.54c.95.48,1.37,1,1.37,1.74,0,1.03-.81,1.78-2.04,1.78-1.11,0-1.82-.76-1.82-1.56,0-.88.69-1.31,1.21-1.49Zm1.65,1.72c0-.54-.25-.89-1.39-1.58-.5.26-.76.78-.76,1.26,0,.88.62,1.31,1.12,1.31.7,0,1.02-.52,1.02-.99Zm-.59-2.33c.43-.34.72-.7.72-1.31,0-.71-.47-1.16-1.02-1.16-.62,0-.96.5-.96,1.02,0,.55.38.93,1.25,1.44h0Zm8.92-6.05c2.08,0,4.69.39,7.44.39v13.86c-5-.5-10.87-.9-12.17,1.53v-.73c1.17-2.19,6.43-2,11.4-1.51v-.4c-5.02-.48-9.83-.68-11.4,1.24v-12.46c.31-1.52,2.11-1.92,4.72-1.93h0Zm-3.27,6.84h.28l.22-.59h2.6l-2.53,5.19.47.13,3.17-6.22-.08-.08h-3.89l-.24,1.57h0Zm6.26-.19c-.65-.39-1.1-.95-1.1-1.68,0-.62.45-1.73,1.92-1.73,1.17,0,1.68.74,1.68,1.39s-.24,1.09-1.22,1.54c.95.48,1.38,1,1.38,1.74,0,1.03-.81,1.78-2.04,1.78-1.11,0-1.82-.76-1.82-1.56,0-.88.69-1.31,1.21-1.49h0Zm1.65,1.72c0-.54-.26-.89-1.39-1.58-.5.26-.76.78-.76,1.26,0,.88.62,1.31,1.12,1.31.71,0,1.03-.52,1.03-.99Zm-.6-2.33c.43-.34.73-.7.73-1.31,0-.71-.47-1.16-1.02-1.16-.62,0-.96.5-.96,1.02,0,.55.39.93,1.25,1.44h0Zm21.76,51.38l-30.9-25.19-30.9,25.19c-15.95-18.52-15.83-39.88-15.79-48.7v-14.5h.06l46.63,38.01,46.63-38.01h.06v14.5c.05,8.82.17,30.19-15.78,48.7h0Zm-57.9-13.55c6.58,0,11.92-5.35,11.93-11.98.01-6.63-5.31-12.01-11.89-12.02-6.57,0-11.92,5.35-11.93,11.98-.01,6.63,5.32,12.01,11.89,12.02h0Zm7.72-16.95c.03.36-.15.97-.29,1.13-.13.04-.47.07-.72.09-.16,0-.2.03-.3.19-.29.5-.56.97-.87,1.57-.07.7-.07,1.39-.12,2.22-.02.3.02.68-.18,1.02-.26.33-.54.57-.77.73-.05.03-.11.11.09.05.12-.03.67-.31.79-.35.39-.13.84-.61,1.46,0,.3.29.75.56,1.29.93.2.13.31.11.57.34.22.19.32.61.45.83.33.57.37.92.36,1.05-.21.12-.99.12-1.31.03-.11-.2-.1-.49-.16-.64-.11-.28-.21-.41-.36-.52-.24-.17-.42-.36-.66-.5-.6-.33-.67-.42-1.12-.2-.4.2-1.03.77-1.69,1.11-.52.25-1.94,0-2.34-.36.13.39.93.83,1.53,1.11-.08.21-.3,1.31-.73,1.95-.03-.15-.12-.27-.26-.27-.4,0-.33.86-.71,1.3-.03-.14-.12-.28-.28-.28-.38,0-.33.81-.76,1.23-.05-.18-.15-.3-.32-.3s-.32.16-.47.32c-.51.55-.75.86-1.23,1.37-1.63-.1-4.05-1.23-4.9-2.26,1.55-1.66,2.94-3.31,3.62-3.79.33-.98,1.3-3.04,1.66-3.99-.05-.09-.09-.18-.15-.27-.24.14-.53.17-.65.1.1-.27.11-.69,0-1.02-.17.1-.42.16-.59.08.11-.32.13-.7.03-1,0,0,0,0,0,0-.22.1-.43.13-.59.07.09-.36.18-.7.07-1.15-.01-.03-.03-.06-.03-.1-.29.15-1.33.34-1.57.24-.15-.12.74-1.02,1.49-1.78-.71.31-1.63.65-3.03.93-.8.16-2.48.46-3.68.24-.2-.03-.15-.3.04-.3.63,0,1.47-.04,2.09-.19.17-.04.43-.18-.05-.26-.51-.09-1.44-.24-1.9-.4-.16-.05-.08-.25.06-.24.57.04,1.25.16,1.73.18.29,0,.41-.03.2-.21-.13-.11-.53-.37-.94-.61-.09-.05-.08-.18.03-.2.32-.05,1.59.74,2.44.97.19.05.35.09.51.06.17-.03.2-.13.19-.2-.03-.2-.87-.6-1.28-.87-.17-.11,0-.24.18-.19.45.13,1.49.68,1.96.73.38.04.51-.06.49-.16-.05-.25-1.48-.93-1.82-1.18-.08-.06.03-.18.13-.16.73.09,2.16,1.08,2.79.96.07-.01.16-.06.14-.15-.05-.28-1.24-.9-1.53-1.1-.15-.1.02-.2.23-.15.43.1,1.11.44,1.52.65.19.1.35.14.55.1.26-.05.49-.32.38-.88-.11-.58-.64-.8-1.02-.9-.42-.11-.11-.31.25-.24.68.13,1.18.45,1.3,1.06.02.1.02.23.03.37.01.33.25.21.45-.07.38-.53.46-1.06.39-1.42-.11-.62-.99-.87-.99-1.02,0-.05.05-.09.1-.1.34-.06,1.26.34,1.39,1.08.07.39,0,.6-.07.99-.02.08.04.15.17.02.44-.44.81-1.24.68-1.96-.14-.77-.92-1.04-.95-1.16,0-.03.06-.08.12-.09.32-.06,1.19.46,1.36,1.3.15.75-.2,2.31-2.54,3.56.98-.22,1.25-.19,1.36-.07,1.13-.3,1.84-.53,2.14-.47.31.48-.35.68-.36,1.04,0,.35.79-.23.65.32-.24.43-.54.46-.89.6-.18.12-.87.62-1.25.93,1.12.78,2.28,1.98,2.35,2.03.07.17.35.67.66,1.41,0,.01.02.03.03.04.16-.48.42-1.29.53-1.69.1-.35.06-.47.18-.68.1-.18.41-.47.69-.89.25-.37.66-.95.8-1.17.24-.36.47-.29.91-.41.16-.04.66-.07.85-.06h0Zm-8.85.05c.06-.05.14-.14.23-.18.18-.1.43-.16.6-.19.08.12.05.33-.09.49-.15.17-.31.09-.46.02-.11-.05-.19-.05-.23-.05-.06,0-.09-.05-.05-.09Zm43.13,4.9c.01-6.63,5.36-11.99,11.93-11.98,6.58.01,11.9,5.39,11.89,12.02-.01,6.62-5.35,11.99-11.93,11.98-6.58-.01-11.9-5.53-11.89-12.02h0Zm17.4-8.17c.07.09.12.2.12.32,0,.3-.23.54-.52.55-.29,0-.54-.23-.55-.52,0-.27.19-.5.45-.54l-.61-.95-1.05.45c.11.09.18.23.18.39,0,.3-.22.54-.52.55-.3,0-.54-.23-.55-.52,0-.23.13-.43.33-.51-.31-.33-.99-.84-1.63-1.05.5.9.77,2.03.75,2.96.67-.04,2.52.52,3.22,1.05.57-.84,1.42-1.64,2.37-1.98-.46-.15-1.35-.3-2-.21h0Zm-3.35,2.39c-.08,0-.16-.02-.24-.03-.08-.02-.11-.05-.13-.07-.02-.03-.09-.11-.27-.12-.32-.02-.48.22-.5.37-.01.11.02.22.08.31.06.07.14.11.24.12.06,0,.13,0,.2-.03h0c.13-.08.2-.19.24-.3.02-.05.17-.11.34-.12.03,0,.06-.02.06-.05,0-.03,0-.07-.04-.07h0Zm-3.23.17c-.06.11-.06.23-.04.32,0,0,.04.06.05.07-.04.18-.03.41.04.73.04.19.21.25.53.26,0,.08.01.16.03.23,0,0,0,.02,0,.03-.19.05-.37.08-.53.07-.5-.03-.8-.31-.74-.81.01-.09.04-.17.09-.25.02-.04,0-.08-.04-.09-.18-.06-.69.36-.76.94-.07.56.24.86.7.89.25.02.59-.02.96-.16.61-.25,1.31-.33,1.74.1-.32-.06-1.16,0-1.4.05-.36.07-.53.81-.14.83.3.02,1.43-.05,1.49-.03-.11.49-.84,1.1-1.55,1.25-.43-.18-1.69-.14-2.25.03-.72-.81-1.24-2.31-1.3-2.81-.03-.23-.03-.49.08-.7.23-.41.68-.37.9-.72.12-.19.07-.42.1-.63.01-.09.2-.4-.03-.51-.1.12-.26.22-.47.15-.14-.05-.28-.09-.43-.03-.25.11-.3.42-.49.62-.1.11-.24.06-.21-.12.05-.28.19-.55.15-.84-.04-.29-.26-.52-.56-.69-.13-.07-.28-.2-.42-.23-.14-.04-.26.02-.26.08.07.05.12.13.13.24,0,.26-.28.41-.29.65,0,.38.26.73.29.93.02.15-.11.15-.2.1-.2-.11-.51-.28-.79-.28-.24,0-.39.18-.59.27-.09.03-.46.03-.39.21.2.04.36.17.43.36.05.14.08.26.22.36.23.16.7.12.94.16.15.03.32.12.37.43.03.21-.05.45-.15.63-.18.32-.27.65-.19.95.08-.12.17-.17.27-.17.2,0,.26.23.11.55-.13.28-.21.6-.08.97.06-.12.16-.2.28-.2.18,0,.28.19.15.54-.12.32-.15.63-.02.93.05-.14.16-.23.29-.23.19,0,.27.2.34.36.22.55.58.83,1.48.83-.31.59-2.89.21-3.94.09-.23-.03-.36-.09-.42-.28-.17-.41.22-.75,0-1.19-.11-.21-.28-.27-.46-.39-.08-.05-.32-.36-.48-.23.06.16.05.3-.13.46-.12.1-.24.2-.26.37-.03.29.21.57.28.82.07.19-.05.26-.2.14-.25-.19-.61-.63-.99-.63-.26,0-.33.16-.54.25-.09.04-.5.08-.46.28.18.03.33.13.38.37.03.16.07.32.21.42.35.27.9.15,1.22.21.13.03.15.14.03.21-.27.16-.66.27-.79.54-.11.22-.04.48-.05.7,0,.1-.13.4.08.47.11-.14.25-.25.5-.22.16.02.29.09.46.02.27-.14.29-.39.43-.62.07-.12.19-.24.38-.24.12,0,.23.03.32.11.21.18.18.62.82.72-.03-.07-.05-.15-.05-.22,0-.13.07-.23.2-.23.14,0,.25.07.38.29.17.29.35.37.63.41-.04-.07-.06-.16-.06-.25,0-.13.08-.22.2-.22.08,0,.21.03.33.23.18.31.32.46.64.49-.09-.18-.02-.42.22-.42s.85.21,1.3.4c-.02,1.16.74,2.41,1.87,3.17-.04-.22.07-.34.24-.34.45,0,.69,1.07,1.71,1.56-.05-.2.06-.34.2-.34.12,0,.28.08.37.12.91.49,1.88,1.12,2.35,1.53.95-.29,2.5-1.22,3.51-2.26-.62-.19-2.35-1.48-2.95-2.1-1.08-1.11-1.37-2.28-1.37-3.14,0-.29.04-.56.11-.77.32.19.76.16,1.03-.09-.49-.39-.42-1.15-.25-1.42.27.23.77.16,1.02-.07-.38-.23-.58-.85-.38-1.37.21.22.7.23,1-.01-.39-.33-.6-.86-.49-1.48.18.25.53.28.79.18-.16-.34-.17-.89-.22-1.26-.06-.5-.21-1.08-.38-1.38-.54-.47-2.19-1.13-3.23-1.13-.14,0-.28.02-.39.05-.28.07-.49.17-.5.22-.15.24-.54.29-.88.38-.25.07-.9.25-1.16.39h0Zm1.58,8.06h-.09c-.07.7-.46,1.77-.7,2.16l.45-.35.29.35.3-.35.42.35c-.23-.41-.6-1.46-.67-2.16h0Zm7.95,3.4c.1-.14.21-.34.21-.34-.44-.67-.77-1.41-.71-2.25.07-.92.58-1.2.98-1.18.36.01.61.29.63.7.31-.26.44-.56.47-.87.02-.24-.1-.61-.51-.71.73-.68.66-2.04-.09-2.55.1.97-.62,1.64-1.27,2.28-.88.85-.99,1.81-.84,2.81-.52-1-.76-1.95-.69-2.89.07-1.05.6-2.13,1.37-2.08.25.02.5.14.6.36.37-.61.11-1.29-.48-1.34.6-1.44-.37-2.9-1.18-3.21.21.43.31.87.27,1.38-.1,1.39-1.31,2.5-1.44,4.56-.13,2.24,1.11,4.18,2.44,5.66,0,0,.11-.14.23-.31h0Zm-5.25-.34h-.09c-.07.7-.46,1.77-.7,2.16l.45-.36.29.36.3-.35.42.35c-.23-.41-.6-1.46-.67-2.16h0Zm-2.07-9.06c.07-.14.11-.33.11-.44,0-.08,0-.19-.09-.27-.08-.08-.3-.13-.52-.13s-.46.03-.59.12c-.02.06-.05.14-.08.22.41,0,.85.1,1.17.49h0Z"/>
      </g>
    </g>
  </g>
</svg>