<svg viewBox="14.464 75.48400000000001 202.044 72.32000000000001" xmlns:xlink="http://www.w3.org/1999/xlink" xmlns="http://www.w3.org/2000/svg" id="Layer_1" style="max-height: 500px" width="202.044" height="72.32000000000001"><defs><style>.cls-1{clip-path:url(#clippath-20);}.cls-2{clip-path:url(#clippath-11);}.cls-3{clip-path:url(#clippath-16);}.cls-4{fill:#fff;}.cls-5{clip-path:url(#clippath-2);}.cls-6{clip-path:url(#clippath-13);}.cls-7{clip-path:url(#clippath-15);}.cls-8{clip-path:url(#clippath-6);}.cls-9{clip-path:url(#clippath-7);}.cls-10{clip-path:url(#clippath-21);}.cls-11{clip-path:url(#clippath-1);}.cls-12{clip-path:url(#clippath-4);}.cls-13{clip-path:url(#clippath-12);}.cls-14{clip-path:url(#clippath-24);}.cls-15{clip-path:url(#clippath-22);}.cls-16{clip-path:url(#clippath-9);}.cls-17{clip-path:url(#clippath);}.cls-18{fill:none;}.cls-19{clip-path:url(#clippath-19);}.cls-20{clip-path:url(#clippath-3);}.cls-21{clip-path:url(#clippath-8);}.cls-22{clip-path:url(#clippath-18);}.cls-23{clip-path:url(#clippath-14);}.cls-24{clip-path:url(#clippath-17);}.cls-25{clip-path:url(#clippath-5);}.cls-26{fill:#4f2683;}.cls-27{clip-path:url(#clippath-10);}.cls-28{clip-path:url(#clippath-23);}</style><clipPath id="clippath"><rect height="45.27" width="190" y="90.37" x="18" class="cls-18"/></clipPath><clipPath id="clippath-1"><rect height="45.27" width="190" y="90.37" x="18" class="cls-18"/></clipPath><clipPath id="clippath-2"><rect height="45.27" width="190" y="90.37" x="18" class="cls-18"/></clipPath><clipPath id="clippath-3"><rect height="45.27" width="190" y="90.37" x="18" class="cls-18"/></clipPath><clipPath id="clippath-4"><rect height="45.27" width="190" y="90.37" x="18" class="cls-18"/></clipPath><clipPath id="clippath-5"><rect height="45.27" width="190" y="90.37" x="18" class="cls-18"/></clipPath><clipPath id="clippath-6"><rect height="45.27" width="190" y="90.37" x="18" class="cls-18"/></clipPath><clipPath id="clippath-7"><rect height="45.27" width="190" y="90.37" x="18" class="cls-18"/></clipPath><clipPath id="clippath-8"><rect height="45.27" width="190" y="90.37" x="18" class="cls-18"/></clipPath><clipPath id="clippath-9"><rect height="45.27" width="190" y="90.37" x="18" class="cls-18"/></clipPath><clipPath id="clippath-10"><rect height="45.27" width="190" y="90.37" x="18" class="cls-18"/></clipPath><clipPath id="clippath-11"><rect height="45.27" width="190" y="90.37" x="18" class="cls-18"/></clipPath><clipPath id="clippath-12"><rect height="45.27" width="190" y="90.37" x="18" class="cls-18"/></clipPath><clipPath id="clippath-13"><rect height="45.27" width="190" y="90.37" x="18" class="cls-18"/></clipPath><clipPath id="clippath-14"><rect height="45.27" width="190" y="90.37" x="18" class="cls-18"/></clipPath><clipPath id="clippath-15"><rect height="45.27" width="190" y="90.37" x="18" class="cls-18"/></clipPath><clipPath id="clippath-16"><rect height="45.27" width="190" y="90.37" x="18" class="cls-18"/></clipPath><clipPath id="clippath-17"><rect height="45.27" width="190" y="90.37" x="18" class="cls-18"/></clipPath><clipPath id="clippath-18"><rect height="45.27" width="190" y="90.37" x="18" class="cls-18"/></clipPath><clipPath id="clippath-19"><rect height="45.27" width="190" y="90.37" x="18" class="cls-18"/></clipPath><clipPath id="clippath-20"><rect height="45.27" width="190" y="90.37" x="18" class="cls-18"/></clipPath><clipPath id="clippath-21"><rect height="45.27" width="190" y="90.37" x="18" class="cls-18"/></clipPath><clipPath id="clippath-22"><rect height="45.27" width="190" y="90.37" x="18" class="cls-18"/></clipPath><clipPath id="clippath-23"><rect height="45.27" width="190" y="90.37" x="18" class="cls-18"/></clipPath><clipPath id="clippath-24"><rect height="45.27" width="190" y="90.37" x="18" class="cls-18"/></clipPath></defs><rect height="226" width="226" class="cls-4"/><polygon points="58.75 127.74 58.75 134.23 62.8 134.23 62.8 133.66 59.37 133.66 59.37 131.09 61.79 131.09 61.79 130.52 59.37 130.52 59.37 128.34 62.62 128.34 62.62 127.74 58.75 127.74" class="cls-26"/><g class="cls-17"><path d="m77.1,130.65c-1.38-.44-1.79-.67-1.79-1.4,0-.6.52-1.06,1.4-1.06.8,0,1.38.34,1.71,1.17l.52-.23c-.31-.86-1.01-1.48-2.23-1.48s-2,.73-2,1.66c0,1.06.7,1.45,2.1,1.87,1.38.44,1.69.78,1.69,1.45,0,.73-.62,1.17-1.61,1.17-.91,0-1.56-.47-1.84-1.38l-.55.21c.31,1.04,1.17,1.71,2.39,1.71,1.3,0,2.26-.7,2.26-1.77-.05-1.04-.7-1.48-2.05-1.92" class="cls-26"/></g><g class="cls-11"><path d="m71,129.51c0-1.14-.8-1.74-2.26-1.74h-2.18v6.46h.62v-2.91h1.61l1.58,2.91h.7l-1.64-2.96c.96-.21,1.56-.73,1.56-1.77m-2.28,1.27h-1.51v-2.47h1.51c1.09,0,1.69.31,1.69,1.19-.03.96-.62,1.27-1.69,1.27" class="cls-26"/></g><g class="cls-5"><path d="m65.89,119.26c-5.04,0-5.79-3.84-5.79-9.71v-.31h12.95c0-5.22-2.91-8.83-8.31-8.83-5.92,0-9.08,4.54-9.08,10.02s2.98,10.05,9.06,10.05c3.76,0,6.8-1.43,8.38-5.55l-.91-.29c-1.12,2.54-2.93,4.62-6.31,4.62m-5.74-12.12c.21-2.91,1.27-5.74,4.33-5.74,3.27,0,3.97,2.54,4.05,5.24v1.38h-8.44c0-.29.03-.62.05-.88" class="cls-26"/></g><g class="cls-20"><path d="m162.24,119.02v-13.11c0-3.89-1.92-5.58-5.74-5.58-3.19,0-5.55,1.56-6.75,4.2h-.08v-4.31c-.52.44-1.25.93-2.96.93h-4.13v.99h3.11v16.87h-3.37v.99h10.43v-.99h-3.09v-10.15c0-3.63,1.87-7.14,5.4-7.14,1.97,0,3.19,1.12,3.19,4.05v13.24h-3.09v.99h10.15v-.99h-3.09Z" class="cls-26"/></g><g class="cls-12"><path d="m59.09,92.86v-.96h-7.94v.96h3.5l-.91,3.19-5.5,16.82h-.08l-6.18-16.9-1.06-3.11h3.95v-.96h-12.2v.96h3.4l2,5.37-5.06,14.64h-.08l-6.1-16.82-1.06-3.19h3.5v-.96h-11.27v.96h2.73l1.43,3.79,8.72,23.78h.8s5.35-15.31,7.06-20.27l7.53,20.27h.83l7.89-24.06,1.25-3.5h2.86Z" class="cls-26"/></g><g class="cls-25"><path d="m83.59,119.39c-3.82,0-6.07-2.49-6.9-6.13h-.96l1.27,7.01c.42-.49.96-.65,1.51-.65,1.09,0,2.49.83,4.98.83,3.97,0,6.98-2.21,6.98-6,0-7.55-10.82-5.55-10.82-10.43,0-1.56,1.12-2.7,3.09-2.7,3.17,0,4.93,2.23,5.68,4.88h.93l-1.09-5.97c-.36.42-.86.62-1.43.62-1.32,0-2.13-.55-4.13-.55-3.45,0-6.1,1.87-6.1,5.27,0,6.96,10.67,5.48,10.67,10.46,0,2.28-1.64,3.35-3.69,3.35" class="cls-26"/></g><g class="cls-8"><path d="m30.67,131.95c0,1.06-.55,1.82-1.74,1.82s-1.74-.78-1.74-1.84v-4.18h-.62v4.28c0,1.3.75,2.31,2.36,2.31s2.36-1.04,2.36-2.31v-4.26h-.62s0,4.18,0,4.18Z" class="cls-26"/></g><g class="cls-9"><path d="m142.43,127.72l-2.41,6.49h.6l.73-2h2.86l.73,2h.65l-2.41-6.49h-.73Zm-.88,3.97l1.22-3.3h.03l1.22,3.3h-2.47Z" class="cls-26"/></g><g class="cls-21"><polygon points="52.44 133.4 52.44 133.4 50.5 127.74 49.87 127.74 52.13 134.26 52.73 134.26 54.99 127.74 54.39 127.74 52.44 133.4" class="cls-26"/></g><g class="cls-16"><polygon points="39.96 133.09 39.93 133.09 36.38 127.74 35.7 127.74 35.7 134.23 36.3 134.23 36.3 128.73 36.33 128.73 39.98 134.23 40.56 134.23 40.56 127.74 39.96 127.74 39.96 133.09" class="cls-26"/></g><g class="cls-27"><rect height="6.46" width=".62" y="127.74" x="45.36" class="cls-26"/></g><g class="cls-2"><path d="m123.56,114.89l-.91-.29c-1.09,2.6-2.93,4.65-6.31,4.65-5.04,0-5.79-3.84-5.79-9.71v-.31h12.95c0-5.22-2.91-8.83-8.31-8.83-5.92,0-9.08,4.54-9.08,10.02s2.98,10.05,9.06,10.05c3.76-.03,6.8-1.43,8.38-5.58m-12.95-7.76c.21-2.91,1.27-5.74,4.33-5.74,3.27,0,3.97,2.54,4.05,5.24v1.38h-8.44c.03-.29.03-.62.05-.88" class="cls-26"/></g><g class="cls-13"><polygon points="135.32 133.09 135.3 133.09 131.71 127.74 131.07 127.74 131.07 134.23 131.64 134.23 131.64 128.73 131.66 128.73 135.35 134.23 135.89 134.23 135.89 127.74 135.32 127.74 135.32 133.09" class="cls-26"/></g><g class="cls-6"><path d="m115.26,133.79c-1.25,0-2.08-1.04-2.08-2.83,0-1.66.8-2.75,2.05-2.75.99,0,1.48.55,1.77,1.56l.6-.16c-.31-1.19-1.04-1.97-2.34-1.97-1.61,0-2.7,1.38-2.7,3.32,0,2.05,1.06,3.37,2.7,3.37,1.3,0,2.13-.8,2.44-2.08l-.6-.13c-.26,1.09-.88,1.66-1.84,1.66" class="cls-26"/></g><g class="cls-23"><rect height="6.46" width=".62" y="127.74" x="83.05" class="cls-26"/></g><g class="cls-7"><path d="m151.42,127.74h-1.64v6.46h1.64c2.08,0,3.22-1.12,3.22-3.24s-1.12-3.22-3.22-3.22m.1,5.94h-1.12v-5.37h1.09c1.61,0,2.54.83,2.54,2.67,0,1.87-.91,2.7-2.52,2.7" class="cls-26"/></g><g class="cls-3"><path d="m141.29,103.03c0-1.56-1.14-2.73-3.27-2.73-3.17,0-4.75,2.86-5.58,5.11h-.05v-5.27c-.62.52-1.27,1.01-2.96,1.01h-4.39v.99h3.35v16.87h-3.35v.99h10.59v-.99h-3.24v-8.31c0-4.41,2.18-9.24,4.96-9.24.21,0,.34.03.47.08-.47.39-.78.99-.78,1.64,0,1.22.93,2.1,2.1,2.1,1.27,0,2.15-1.06,2.15-2.26" class="cls-26"/></g><g class="cls-24"><path d="m123.72,127.72l-2.41,6.49h.6l.73-2h2.86l.73,2h.65l-2.41-6.49h-.73Zm-.88,3.97l1.22-3.3h.03l1.22,3.3h-2.47Z" class="cls-26"/></g><g class="cls-22"><polygon points="97.14 130.83 95.32 127.74 94.65 127.74 96.83 131.4 96.83 134.23 97.45 134.23 97.45 131.4 99.63 127.74 98.96 127.74 97.14 130.83" class="cls-26"/></g><g class="cls-19"><polygon points="87.04 128.34 89.15 128.34 89.15 134.23 89.74 134.23 89.74 128.34 91.85 128.34 91.85 127.74 87.04 127.74 87.04 128.34" class="cls-26"/></g><g class="cls-1"><path d="m101.53,118.89c-1.48,0-2.1-.93-2.1-3.24v-13.5h4.8v-.99h-4.8v-6.44h-.83c-.55,4.15-2.62,6.28-6.41,6.64v.78h3.17v13.34c0,2.49.49,4.88,4.54,4.88,2.57,0,4.1-1.17,4.93-2.73l.31-.62-.86-.39c-.49,1.14-1.32,2.26-2.75,2.26" class="cls-26"/></g><g class="cls-10"><path d="m160.45,127.72l-2.41,6.49h.6l.73-2h2.86l.73,2h.65l-2.41-6.49h-.73Zm-.86,3.97l1.22-3.3h.03l1.22,3.3h-2.47Z" class="cls-26"/></g><g class="cls-15"><path d="m105.91,130.36c-.39,0-.65.29-.65.65,0,.39.29.65.65.65.39,0,.65-.29.65-.65,0-.39-.29-.65-.65-.65" class="cls-26"/></g><g class="cls-28"><path d="m208,109.11v-16.27c-4.2-1.48-10.82-2.44-18.27-2.44s-13.81.96-18.01,2.44v16.51c0,2.44-.1,6.75,2.1,11.89,2.75,6.41,8.07,11.21,15.65,14.22l.39.16.39-.16c7.61-3.01,12.93-7.84,15.65-14.25,2.21-5.14,2.1-9.76,2.1-12.1" class="cls-4"/></g><g class="cls-14"><path d="m208,109.11v-16.27c-4.2-1.48-10.82-2.44-18.27-2.44s-13.81.96-18.04,2.44v16.51c0,2.44-.1,6.75,2.1,11.89,2.75,6.41,8.07,11.21,15.65,14.25l.39.16.39-.16c7.61-3.01,12.93-7.84,15.65-14.25,2.23-5.17,2.13-9.79,2.13-12.12m-14.17,17.78c-.08.03-.18.05-.26.1-.05.03-.08.05-.08.08s.03.08.05.1c-.05.18-.47.16-.6.21-.1.05-.26.16-.34.26-.08.08-.05.05-.18.08-.21.05-.18.26-.1.42s.18.29.34.39c.05.03.29.13.42.13-.13.13-.29.1-.44.16-.08.03-.16.08-.26.1-.13.03-.18.03-.31,0-.16-.03-.31-.03-.44,0-.1,0-.18,0-.29-.05-.05-.03-.13-.08-.16-.08-.13-.03-.03.16,0,.23-.18.16-.57-.05-.73-.16-.13-.08-.21-.29-.36-.34v.49c.03.52.03,1.01.05,1.51,0,.29.03.6.03.88h-.55l.08-2.93c-.18,0-.26.18-.39.23-.08.03-.18.03-.26.08s-.13.13-.23.18c-.08.03-.18.05-.29.05-.13,0-.26-.03-.31-.1.05-.1,0-.21-.08-.26s-.21.03-.29.05c-.39.1-.83-.13-1.19-.29,0,0,.86-.16.86-.65,0-.13-.05-.26-.18-.34-.1-.08-.29-.18-.42-.21-.21-.03-.36.03-.49-.03.03-.08-.1-.16-.18-.23-.08-.05-.18-.08-.29-.13-.18-.08-.42-.26-.36-.47.13.08.26.08.39.03.1-.05.13-.13.13-.26,0-.16-.18-.26-.23-.39-.05-.1-.1-.18-.18-.26-.08-.05-.21-.08-.21-.21.16.05.21-.08.1-.18-.1-.13-.26-.18-.34-.34-.08-.13-.13-.29-.13-.44,0-.05,0-.18.08-.18.05-.03.08.08.1.1.1.16.26.21.39.29.18.1.26.16.47.18.42.08.67.03.91-.21.05-.03.16-.1.18-.1.08.1.31.34.52.42.16.05.34.26.42.34.29.26.47.1.47-.13,0-.21-.08-.47-.13-.65-.08-.31-.13-.47-.18-.78-.03-.21-.13-.36-.21-.49s-.18-.49.08-.36c.1.05.26.16.39.13.31-.05.34-.36.39-.62.03-.13.03-.23.08-.36.03-.08.05-.1.1-.1.03.03.05.1.13.1.1,0,.21-.21.23-.31.03-.1.05-.21.08-.31.05-.16.08-.34.16-.52.03.1.08.31.1.39.08.18.13.36.23.52.1.13.21.16.36.1.08.18.08.73.21.99.08.16.21.21.34.21s.21-.03.29-.08c.1-.05.21-.13.29-.13.03,0,.05.03.05.05,0,.13-.18.44-.21.49-.05.16-.16.34-.18.47-.03.13-.08.29-.1.42-.03.16-.05.34-.08.57,0,.13,0,.39.1.47.16.1.36-.1.47-.21.16-.13.29-.23.39-.39.08-.1.26-.42.42-.39,0,.13.18.29.42.34.16.03.29,0,.39-.08q.13-.08.26-.03c.29.1.78-.26.93-.42.05.05,0,.18-.08.29-.13.21-.29.29-.29.44,0,.13-.18.39-.16.55-.05.08-.21.18-.29.23-.21.18-.34.39-.26.67.08.23.26.36.47.36.18,0,.31-.13.39-.1.03.03-.05.13-.1.18-.03.16-.21.21-.31.23m10.82-23.02h-29.59l-1.89-2,3.76,1.25c-.31-.93-1.17-1.27-1.74-2.08-.34-.47-.44-.96-.42-1.43.1.18.29.42.57.62.29.18.65.34,1.14.44.88.18,1.35.47,1.74.83l-1.92-3.45,3.32,2.15c-.13-.99-.83-1.51-1.17-2.41-.21-.55-.21-1.04-.03-1.51.05.18.18.47.39.73s.55.49.99.7c.86.42,1.22.83,1.51,1.3l-1.01-3.87,2.67,2.88c.1-.96-.42-1.64-.52-2.6-.05-.57.05-1.06.34-1.48,0,.21.05.49.21.8.16.29.39.6.78.93.73.65.99,1.14,1.17,1.69l-.03-4.08,1.87,3.45c.36-.88-.03-1.69.13-2.62.08-.57.34-1.01.7-1.35-.05.21-.08.49,0,.83.08.31.23.67.52,1.09.57.83.67,1.38.7,1.95h0l.99-4,.96,3.82c.57-.78.42-1.69.8-2.57.23-.55.57-.86,1.01-1.09-.1.18-.21.47-.21.8-.03.34.05.73.23,1.19.34.91.31,1.45.21,2.02l1.92-3.58-.03,3.92c.75-.6.8-1.53,1.38-2.28.36-.47.78-.67,1.25-.8-.13.16-.31.39-.42.73-.1.31-.13.7-.08,1.22.1.99-.05,1.53-.31,2.05h0l2.78-3.01-1.01,3.79c.83-.39,1.14-1.19,1.89-1.79.47-.36.91-.55,1.4-.52-.16.1-.39.31-.57.6s-.29.65-.36,1.17c-.16.99-.44,1.45-.8,1.89h.03l3.45-2.23-1.89,3.4c.93-.13,1.38-.88,2.26-1.25.52-.23,1.04-.29,1.51-.16-.18.08-.47.21-.7.44s-.44.57-.65,1.04c-.39.91-.78,1.3-1.25,1.64l.03.03,3.89-1.3-1.89,2.05Zm-15.34,8.38c-.05-.08-.26-.55-1.4-.55h-3.32v-5.35h.23v5.09h3.04c.23,0,.44.03.6.05.62.1.86.34.99.52h.78c.1-.18.36-.42.96-.52.18-.03.36-.05.6-.05h3.04v-5.09h.23v5.35h-3.32c-1.14,0-1.32.47-1.35.55,0,0-1.06,0-1.06,0Zm.39-.91v.26c-.47-.86-2.57-.73-4.36-.55v-4.96c.96,0,1.92-.13,2.65-.13.93,0,1.58.16,1.69.7v4.46c-.57-.67-2.28-.62-4.08-.44v.16c1.82-.23,3.69-.29,4.1.49m-3.74-1.97h1.25v-.1h-.1c-.31,0-.31-.03-.31-.23v-.86c0-.23.03-.26.23-.26h.18v-.1h-1.25v.1h.18c.21,0,.23.03.23.26v.86c0,.21-.03.23-.34.23h-.1l.03.1h0Zm2.13-1.04c-.23-.13-.39-.34-.39-.6,0-.23.16-.62.7-.62.42,0,.6.26.6.49s-.08.39-.44.55c.34.18.49.36.49.62,0,.36-.29.65-.73.65-.39,0-.65-.29-.65-.57-.03-.31.23-.47.42-.52m.6.62c0-.21-.1-.31-.49-.57-.18.1-.29.29-.29.44,0,.31.23.47.39.47.29,0,.39-.18.39-.34m-.21-.83c.16-.13.26-.26.26-.47,0-.26-.18-.42-.36-.42-.23,0-.34.18-.34.36-.03.18.13.31.44.52m3.19-2.18c.75,0,1.69.13,2.67.13v4.96c-1.79-.18-3.89-.31-4.36.55v-.26c.42-.78,2.31-.73,4.08-.55v-.16c-1.79-.18-3.53-.23-4.08.44v-4.46c.1-.49.75-.65,1.69-.65m-1.17,2.44h.1l.08-.21h.93l-.91,1.87.16.05,1.14-2.23-.03-.03h-1.4l-.08.55Zm2.23-.05c-.23-.13-.39-.34-.39-.6,0-.23.16-.62.67-.62.42,0,.6.26.6.49s-.08.39-.44.55c.34.18.49.36.49.62,0,.36-.29.65-.73.65-.39,0-.65-.29-.65-.57.03-.31.26-.47.44-.52m.6.62c0-.21-.1-.31-.49-.57-.18.1-.29.29-.29.44,0,.31.23.47.39.47.29,0,.39-.18.39-.34m-.21-.83c.16-.13.26-.26.26-.47,0-.26-.18-.42-.36-.42-.23,0-.34.18-.34.36s.13.31.44.52m7.79,18.4l-11.08-9.03-11.08,9.03c-5.71-6.64-5.68-14.3-5.66-17.44v-5.19h.03l16.72,13.63,16.72-13.63h.03v5.19c.03,3.14.08,10.8-5.66,17.44m-20.74-4.85c2.36,0,4.28-1.92,4.28-4.28s-1.89-4.31-4.26-4.31-4.28,1.92-4.28,4.28c-.03,2.36,1.89,4.31,4.26,4.31m2.75-6.07c0,.13-.05.34-.1.42-.05.03-.16.03-.26.03-.05,0-.08,0-.1.08-.1.18-.21.34-.31.57-.03.26-.03.49-.05.8,0,.1,0,.23-.05.36-.1.13-.21.21-.29.26-.03,0-.03.05.03.03.05,0,.23-.1.29-.13.13-.05.31-.21.52,0,.1.1.26.21.47.34.08.05.1.03.21.13.08.08.1.21.16.29.13.21.13.34.13.36-.08.05-.36.05-.47,0-.03-.08-.03-.18-.05-.23-.05-.1-.08-.16-.13-.18-.08-.05-.16-.13-.23-.18-.21-.13-.23-.16-.39-.08-.16.08-.36.29-.6.39-.18.1-.7,0-.83-.13.05.13.34.29.55.39-.03.08-.1.47-.26.7,0-.05-.05-.1-.1-.1-.16,0-.13.31-.26.47,0-.05-.05-.1-.1-.1-.13,0-.13.29-.26.44-.03-.05-.05-.1-.1-.1s-.1.05-.16.1c-.18.21-.26.31-.44.49-.57-.03-1.45-.44-1.77-.8.55-.6,1.06-1.19,1.3-1.35.13-.34.47-1.09.6-1.43-.03-.03-.03-.08-.05-.1-.08.05-.18.05-.23.03.03-.1.05-.26,0-.36-.05.03-.16.05-.21.03.03-.1.05-.26,0-.36h0c-.08.03-.16.05-.21.03.03-.13.05-.26.03-.42v-.03c-.1.05-.47.13-.57.08-.05-.05.26-.36.55-.65-.26.1-.57.23-1.09.34-.29.05-.88.16-1.32.08-.08,0-.05-.1.03-.1.23,0,.52-.03.75-.08.05-.03.16-.08-.03-.1-.18-.03-.52-.08-.67-.16-.05-.03-.03-.08.03-.08.21.03.44.05.62.05.1,0,.16,0,.08-.08-.05-.03-.18-.13-.34-.21-.03-.03-.03-.05,0-.08.1-.03.57.26.88.34.08.03.13.03.18.03s.08-.05.08-.08c0-.08-.31-.21-.47-.31-.05-.03,0-.08.08-.08.16.05.55.23.7.26.13.03.18-.03.18-.05-.03-.1-.52-.34-.65-.42-.03-.03,0-.05.05-.05.26.03.78.39,1.01.34.03,0,.05-.03.05-.05-.03-.1-.44-.31-.55-.39-.05-.03,0-.08.08-.05.16.03.39.16.55.23.08.03.13.05.21.03.1-.03.18-.1.13-.31-.03-.21-.23-.29-.36-.34-.16-.05-.03-.1.08-.08.23.05.42.16.47.39v.13c0,.13.08.08.16-.03.13-.18.16-.39.13-.52-.03-.23-.36-.31-.36-.36,0-.03.03-.03.03-.03.13-.03.44.13.49.39.03.13,0,.21-.03.36,0,.03.03.05.05,0,.16-.16.29-.44.23-.7-.05-.29-.34-.36-.34-.42,0,0,.03-.03.05-.03.1-.03.42.16.49.47.05.26-.08.83-.91,1.27.36-.08.44-.08.49-.03.42-.1.65-.18.75-.16.1.18-.13.23-.13.36s.29-.08.23.1c-.08.16-.18.16-.31.21-.05.05-.31.21-.44.34.42.29.8.7.83.73.03.05.13.23.23.49v.03c.05-.18.16-.47.18-.6.03-.13.03-.16.05-.23.03-.05.16-.16.26-.31.08-.13.23-.34.29-.42.08-.13.18-.1.34-.16.03.05.21.05.26.05m-3.17.03s.05-.05.08-.08c.05-.03.16-.05.21-.08.03.05.03.13-.03.18-.05.05-.1.03-.16,0-.03-.03-.08-.03-.08-.03-.03.03-.03,0-.03,0m15.47,1.74c0-2.36,1.92-4.31,4.28-4.28,2.36,0,4.26,1.92,4.26,4.31s-1.92,4.31-4.28,4.28-4.26-1.97-4.26-4.31m6.23-2.93s.05.08.05.1c0,.1-.08.21-.18.21s-.18-.08-.21-.18c0-.1.08-.18.16-.18l-.21-.34-.36.16s.05.08.08.13c0,.1-.08.21-.18.21s-.21-.08-.21-.18c0-.08.05-.16.13-.18-.1-.13-.36-.31-.6-.39.18.31.29.73.26,1.06.23-.03.91.18,1.14.39.21-.31.52-.6.86-.7-.18-.08-.49-.13-.73-.1m-1.19.86h-.08s-.03-.03-.05-.03c0,0-.03-.05-.1-.05-.1,0-.18.08-.18.13,0,.03,0,.08.03.1s.05.05.08.05h.08c.05-.03.08-.08.08-.1s.05-.03.13-.05t.03-.05s0,0,0,0m-1.17.08c-.03.05-.03.08-.03.1l.03.03c-.03.05,0,.16,0,.26.03.08.08.1.18.1v.08h0c-.08.03-.13.03-.18.03-.18,0-.29-.1-.26-.29,0-.03.03-.05.03-.08s0-.03-.03-.03c-.05-.03-.26.13-.29.34s.08.31.26.31c.1,0,.21,0,.34-.05.21-.08.47-.1.62.03-.1-.03-.42,0-.49.03-.13.03-.18.29-.05.31.1,0,.52-.03.55,0-.05.18-.31.39-.55.44-.16-.05-.6-.05-.8.03-.26-.29-.44-.83-.47-1.01,0-.08,0-.18.03-.26.08-.16.23-.13.31-.26.05-.08.03-.16.03-.23,0-.03.08-.16-.03-.18-.03.05-.1.08-.16.05-.05-.03-.1-.03-.16,0-.08.03-.1.16-.18.23-.03.05-.08.03-.08-.05.03-.1.08-.21.05-.31-.03-.1-.1-.18-.21-.23-.05-.03-.1-.08-.16-.08-.05-.03-.1,0-.1.03.03.03.05.05.05.08,0,.1-.1.16-.1.23,0,.13.1.26.1.34,0,.05-.03.05-.08.03-.08-.03-.18-.1-.29-.1-.08,0-.13.08-.21.1-.03,0-.16,0-.13.08.08.03.13.05.16.13.03.05.03.1.08.13.08.05.26.05.34.05.05,0,.1.05.13.16,0,.08-.03.16-.05.23-.08.1-.1.23-.08.34.03-.05.05-.05.1-.05.08,0,.1.08.05.21-.05.1-.08.21-.03.34.03-.05.05-.08.1-.08.08,0,.1.08.05.21-.05.1-.05.23,0,.34.03-.05.05-.08.1-.08.08,0,.1.08.13.13.08.21.21.31.52.31-.1.21-1.04.08-1.4.03-.08,0-.13-.03-.16-.1-.05-.16.08-.26,0-.42-.03-.08-.1-.1-.16-.13-.03-.03-.1-.13-.18-.08.03.05.03.1-.05.16-.05.03-.08.08-.1.13-.03.1.08.21.1.29.03.08-.03.1-.08.05-.08-.08-.21-.23-.36-.23-.1,0-.13.05-.18.1-.03.03-.18.03-.16.1.05,0,.13.05.13.13.03.05.03.1.08.16.13.1.31.05.44.08.05,0,.05.05,0,.08-.1.05-.23.1-.29.18-.05.08-.03.18-.03.26,0,.03-.05.16.03.16.05-.05.1-.08.18-.08.05,0,.1.03.16,0,.1-.05.1-.13.16-.21.03-.05.08-.08.13-.08s.08,0,.1.05c.08.08.08.23.29.26-.03-.03-.03-.05-.03-.08,0-.05.03-.08.08-.08s.08.03.13.1c.05.1.13.13.23.16-.03-.03-.03-.05-.03-.08,0-.05.03-.08.08-.08.03,0,.08,0,.13.08.05.1.1.16.23.18-.03-.05,0-.16.08-.16s.31.08.47.13c0,.42.26.86.67,1.14-.03-.08.03-.13.08-.13.16,0,.23.39.62.57-.03-.08.03-.13.08-.13s.1.03.13.05c.34.18.67.39.83.55.34-.1.88-.44,1.25-.8-.23-.08-.83-.52-1.06-.75-.39-.39-.49-.8-.49-1.12,0-.1.03-.21.05-.29.1.08.29.05.36-.03-.18-.13-.16-.42-.1-.52.1.08.29.05.36-.03-.13-.08-.21-.31-.13-.49.08.08.26.08.36,0-.13-.13-.21-.31-.18-.52.08.08.18.1.29.05-.05-.13-.05-.31-.08-.44-.03-.18-.08-.39-.13-.49-.18-.16-.78-.42-1.17-.42-.05,0-.1,0-.13.03-.1.03-.18.05-.18.08-.05.08-.18.1-.31.13.03-.08-.21,0-.31.05m.57,2.88h0c-.05.26-.18.65-.29.78l.16-.13.1.13.1-.13.16.13c-.08-.16-.21-.52-.23-.78m2.86,1.22c.03-.05.08-.13.08-.13-.16-.23-.29-.49-.26-.8.03-.34.21-.44.36-.42.13,0,.21.1.23.26.1-.1.16-.21.16-.31,0-.08-.03-.21-.18-.26.26-.23.23-.73-.03-.91.03.34-.23.6-.47.8-.31.31-.36.65-.31,1.01-.18-.36-.29-.7-.26-1.04.03-.39.21-.75.49-.75.08,0,.18.05.21.13.13-.21.03-.47-.18-.49.21-.52-.13-1.04-.42-1.14.08.16.1.31.1.49-.03.49-.47.88-.52,1.64-.05.8.39,1.51.88,2.02.03,0,.05-.05.1-.1m-1.89-.13h0c-.05.26-.18.62-.29.78l.16-.13.1.13.1-.13.16.13c-.08-.13-.21-.52-.23-.78m-.73-3.24c.03-.05.03-.13.03-.16s0-.08-.03-.1-.1-.05-.18-.05-.16,0-.21.05c0,.03-.03.05-.03.08.13.03.29.05.42.18" class="cls-26"/></g></svg>